<svg width="134" height="48" viewBox="0 0 134 48" fill="none" xmlns="http://www.w3.org/2000/svg">
<g clip-path="url(#clip0_1_923)">
<path d="M15.385 6H0.75V41L15.385 6Z" fill="#FA0C00"/>
<path d="M25.6821 6H40.298V41L25.6821 6Z" fill="#FA0C00"/>
<path d="M20.5337 18.8998L29.8486 41H23.7372L20.9532 33.9638H14.1362L20.5337 18.8998Z" fill="#FA0C00"/>
<path d="M64.1736 28.2578L65.8993 33.206C65.9565 33.33 66.0423 33.3872 66.1948 33.3872H69.5127C69.6939 33.3872 69.7225 33.3014 69.6939 33.1202L62.8388 14.0804C62.8102 13.9279 62.7816 13.8993 62.629 13.8993H58.5103C58.3959 13.8993 58.3291 13.9851 58.3291 14.109C58.2719 15.1101 58.1861 15.4152 58.0622 15.7108L51.9507 33.0916C51.9221 33.3014 51.9889 33.3872 52.1605 33.3872H55.1256C55.3068 33.3872 55.3926 33.33 55.4593 33.1488L57.0897 28.2578H64.1736ZM58.0336 25.0257C58.9298 22.318 60.112 18.8475 60.5887 16.8644H60.6173C61.2084 18.9429 62.6004 23.0616 63.2297 25.0257H58.0336Z" fill="#FA0C00"/>
<path d="M78.5067 33.6827C80.2896 33.6827 82.1869 33.3585 84.1128 32.5291C84.2654 32.4719 84.294 32.4051 84.294 32.2621C84.2367 31.7282 84.17 30.9559 84.17 30.3648V12.4405C84.17 12.3261 84.17 12.2689 84.027 12.2689H80.7949C80.671 12.2689 80.6138 12.3261 80.6138 12.4787V18.552C80.1084 18.4947 79.7557 18.4661 79.3362 18.4661C74.121 18.4661 70.9175 21.908 70.9175 26.2079C70.9175 31.1943 74.2068 33.6827 78.5067 33.6827ZM80.6138 30.3648C80.0798 30.5364 79.4887 30.6032 78.8881 30.6032C76.5236 30.6032 74.5881 29.2684 74.5881 26.0268C74.5881 23.157 76.5808 21.4599 79.2218 21.4599C79.7557 21.4599 80.2229 21.5171 80.6138 21.6696V30.3648Z" fill="#FA0C00"/>
<path d="M94.6048 18.4662C90.1524 18.4662 87.397 21.8794 87.397 26.0935C87.397 29.8595 89.5898 33.6828 94.5381 33.6828C98.7236 33.6828 101.66 30.6032 101.66 25.9982C101.66 21.9366 99.1717 18.4662 94.6048 18.4662ZM94.4237 21.4599C96.9407 21.4599 98.0085 23.6242 98.0085 26.0935C98.0085 29.1445 96.4354 30.6604 94.6048 30.6604C92.3452 30.6604 91.0104 28.7631 91.0104 26.0268C91.0104 23.2142 92.431 21.4599 94.4237 21.4599Z" fill="#FA0C00"/>
<path d="M105.002 12.2689C104.878 12.2689 104.792 12.3261 104.792 12.4787V32.7674C104.792 32.8532 104.878 33.0058 105.002 33.0344C106.422 33.4729 107.91 33.6827 109.445 33.6827C113.84 33.6827 118.111 30.9559 118.111 25.4642C118.111 21.4885 115.384 18.4661 111.113 18.4661C110.131 18.4661 109.216 18.6187 108.415 18.8856L108.377 12.5073C108.377 12.2975 108.32 12.2689 108.11 12.2689H105.002ZM114.46 25.8265C114.46 29.1158 112.21 30.6604 109.778 30.6604C109.273 30.6604 108.825 30.6318 108.415 30.5078V21.8508C108.882 21.6696 109.445 21.5171 110.484 21.5171C112.829 21.5171 114.46 23.0044 114.46 25.8265Z" fill="#FA0C00"/>
<path d="M130.173 26.8944C131.622 26.8944 132.814 26.8658 133.224 26.7705C133.377 26.7419 133.434 26.6847 133.463 26.5607C133.548 26.2365 133.587 25.5596 133.587 24.7301C133.587 21.908 131.889 18.4662 127.504 18.4662C123.023 18.4662 120.534 22.1178 120.534 26.2365C120.534 29.8881 122.46 33.6828 127.856 33.6828C129.878 33.6828 131.184 33.3586 132.309 32.8247C132.423 32.7675 132.481 32.6721 132.481 32.5005V30.0312C132.481 29.8881 132.395 29.8595 132.309 29.9167C131.184 30.3935 129.964 30.6318 128.629 30.6318C125.606 30.6318 124.234 28.9633 124.148 26.8944H130.173ZM124.148 24.3392C124.386 22.8901 125.301 21.3169 127.351 21.3169C129.611 21.3169 130.202 23.2142 130.202 24.0723C130.202 24.1009 130.202 24.2248 130.202 24.3106C130.078 24.3392 129.697 24.3392 128.572 24.3392H124.148Z" fill="#FA0C00"/>
</g>
<defs>
<clipPath id="clip0_1_923">
<rect width="133" height="48" fill="white" transform="translate(0.75)"/>
</clipPath>
</defs>
</svg>
