<svg width="151" height="35" viewBox="0 0 151 35" fill="none" xmlns="http://www.w3.org/2000/svg">
<g filter="url(#filter0_d_1_957)">
<path d="M56.296 17.1213H46.4246V22.3465H57.6746V26H42.2748V5.67831H57.1783V9.27666H46.4246V13.5919H56.296V17.1213ZM67.1039 15.1085C66.773 14.3824 66.125 14.0193 65.1599 14.0193C64.0386 14.0193 63.2849 14.3824 62.8989 15.1085C62.6875 15.5221 62.5818 16.1379 62.5818 16.9559V26H58.5974V11H62.4164V13.1921C62.9035 12.4108 63.363 11.8548 63.795 11.5239C64.5579 10.9357 65.546 10.6415 66.7592 10.6415C67.9081 10.6415 68.8364 10.8943 69.5441 11.3998C70.114 11.8686 70.546 12.4706 70.8401 13.2059C71.3548 12.3235 71.9936 11.6756 72.7564 11.262C73.5653 10.8483 74.466 10.6415 75.4586 10.6415C76.1204 10.6415 76.773 10.7702 77.4164 11.0276C78.0597 11.2849 78.6434 11.7353 79.1673 12.3787C79.5901 12.9026 79.875 13.546 80.0221 14.3088C80.114 14.8143 80.1599 15.5542 80.1599 16.5285L80.1323 26H76.1066V16.432C76.1066 15.8621 76.0147 15.3934 75.8309 15.0257C75.4816 14.3272 74.8382 13.9779 73.9007 13.9779C72.8162 13.9779 72.0671 14.4283 71.6535 15.329C71.4421 15.807 71.3364 16.3814 71.3364 17.0524V26H67.3796V17.0524C67.3796 16.1608 67.2877 15.5129 67.1039 15.1085ZM89.9476 26.3998C88.7068 26.3998 87.7096 26.1517 86.9559 25.6553C86.5055 25.3612 86.0184 24.8465 85.4945 24.1112V26H81.648V5.70588H85.5634V12.9301C86.0597 12.2316 86.6066 11.6985 87.204 11.3309C87.9118 10.8713 88.8125 10.6415 89.9062 10.6415C91.8823 10.6415 93.4265 11.3539 94.5386 12.7785C95.6599 14.2031 96.2206 16.0414 96.2206 18.2932C96.2206 20.6278 95.6691 22.5625 94.5662 24.0974C93.4632 25.6324 91.9237 26.3998 89.9476 26.3998ZM92.0983 18.7068C92.0983 17.6406 91.9605 16.7583 91.6847 16.0597C91.1608 14.7362 90.1958 14.0745 88.7895 14.0745C87.3649 14.0745 86.386 14.7224 85.8529 16.0184C85.5772 16.7077 85.4393 17.5993 85.4393 18.693C85.4393 19.9798 85.7243 21.046 86.2941 21.8915C86.864 22.7371 87.7325 23.1599 88.8998 23.1599C89.9108 23.1599 90.6967 22.7509 91.2573 21.9329C91.818 21.1149 92.0983 20.0395 92.0983 18.7068ZM104.602 14.5983C103.021 14.5983 101.96 15.1131 101.417 16.1425C101.114 16.7215 100.962 17.6131 100.962 18.8171V26H97.0055V10.9724H100.756V13.5919C101.362 12.5901 101.891 11.9053 102.341 11.5377C103.076 10.9219 104.032 10.614 105.209 10.614C105.282 10.614 105.342 10.6186 105.388 10.6278C105.443 10.6278 105.558 10.6324 105.733 10.6415V14.6673C105.484 14.6397 105.264 14.6213 105.071 14.6121C104.878 14.6029 104.721 14.5983 104.602 14.5983ZM106.614 12.5993C107.653 11.2757 109.436 10.614 111.963 10.614C113.608 10.614 115.07 10.9403 116.347 11.5928C117.625 12.2454 118.264 13.477 118.264 15.2877V22.1811C118.264 22.659 118.273 23.2381 118.291 23.9182C118.319 24.4329 118.397 24.7822 118.526 24.966C118.654 25.1498 118.847 25.3015 119.105 25.421V26H114.831C114.711 25.6967 114.629 25.4118 114.583 25.1452C114.537 24.8787 114.5 24.5754 114.472 24.2353C113.93 24.8235 113.305 25.3244 112.597 25.7381C111.752 26.2252 110.796 26.4687 109.73 26.4687C108.369 26.4687 107.244 26.0827 106.352 25.3107C105.47 24.5294 105.028 23.4265 105.028 22.0018C105.028 20.1544 105.741 18.8171 107.165 17.9899C107.947 17.5395 109.096 17.2178 110.612 17.0248L111.949 16.8594C112.676 16.7675 113.195 16.6526 113.507 16.5147C114.068 16.2757 114.348 15.9035 114.348 15.398C114.348 14.7822 114.132 14.3594 113.7 14.1296C113.278 13.8906 112.653 13.7711 111.825 13.7711C110.897 13.7711 110.24 14.0009 109.854 14.4605C109.578 14.8006 109.394 15.2601 109.302 15.8392H105.511C105.594 14.5248 105.961 13.4449 106.614 12.5993ZM109.537 23.1599C109.904 23.4632 110.355 23.6149 110.888 23.6149C111.733 23.6149 112.51 23.3667 113.218 22.8704C113.935 22.3741 114.307 21.4688 114.335 20.1544V18.693C114.086 18.8493 113.834 18.9779 113.576 19.079C113.328 19.171 112.983 19.2583 112.542 19.341L111.66 19.5064C110.833 19.6535 110.24 19.8327 109.881 20.0441C109.275 20.4026 108.971 20.9586 108.971 21.7123C108.971 22.3833 109.16 22.8658 109.537 23.1599ZM132.767 16.3631H128.741C128.667 15.8024 128.479 15.2969 128.176 14.8465C127.734 14.2399 127.05 13.9366 126.121 13.9366C124.798 13.9366 123.892 14.5938 123.405 15.9081C123.148 16.6066 123.019 17.5349 123.019 18.693C123.019 19.796 123.148 20.6829 123.405 21.3539C123.874 22.6039 124.756 23.2289 126.052 23.2289C126.971 23.2289 127.624 22.9807 128.01 22.4844C128.396 21.9881 128.631 21.3447 128.713 20.5542H132.725C132.633 21.7491 132.201 22.8796 131.429 23.9458C130.198 25.6645 128.373 26.5239 125.956 26.5239C123.539 26.5239 121.76 25.807 120.62 24.3732C119.481 22.9393 118.911 21.0781 118.911 18.7895C118.911 16.2068 119.54 14.1985 120.8 12.7647C122.059 11.3309 123.796 10.614 126.011 10.614C127.895 10.614 129.435 11.0368 130.63 11.8824C131.834 12.7279 132.546 14.2215 132.767 16.3631ZM146.346 21.5882C146.244 22.4798 145.78 23.3851 144.953 24.3042C143.666 25.7656 141.865 26.4963 139.549 26.4963C137.637 26.4963 135.95 25.8805 134.489 24.6489C133.028 23.4173 132.297 21.4136 132.297 18.6379C132.297 16.0368 132.954 14.0423 134.268 12.6544C135.592 11.2665 137.306 10.5726 139.411 10.5726C140.661 10.5726 141.787 10.807 142.789 11.2757C143.79 11.7445 144.618 12.4844 145.27 13.4954C145.858 14.387 146.24 15.421 146.415 16.5974C146.516 17.2868 146.557 18.2794 146.539 19.5754H136.254C136.309 21.0827 136.782 22.1397 137.674 22.7463C138.216 23.1232 138.869 23.3116 139.631 23.3116C140.44 23.3116 141.097 23.0818 141.603 22.6222C141.879 22.3741 142.122 22.0294 142.334 21.5882H146.346ZM142.458 16.9835C142.393 15.9449 142.076 15.159 141.506 14.6259C140.946 14.0836 140.247 13.8125 139.411 13.8125C138.501 13.8125 137.793 14.0974 137.288 14.6673C136.791 15.2371 136.479 16.0092 136.35 16.9835H142.458Z" fill="black"/>
<circle cx="13.5" cy="16.5" r="9.5" fill="#3461FF"/>
<path d="M38.5192 15.6362C39.1807 16.0221 39.1807 16.9779 38.5192 17.3638L23.5039 26.1227C22.8372 26.5116 22 26.0308 22 25.259L22 7.74104C22 6.96925 22.8372 6.48837 23.5039 6.87726L31 11.25L38.5192 15.6362Z" fill="#3461FF"/>
</g>
<defs>
<filter id="filter0_d_1_957" x="0" y="5.67822" width="150.566" height="28.8457" filterUnits="userSpaceOnUse" color-interpolation-filters="sRGB">
<feFlood flood-opacity="0" result="BackgroundImageFix"/>
<feColorMatrix in="SourceAlpha" type="matrix" values="0 0 0 0 0 0 0 0 0 0 0 0 0 0 0 0 0 0 127 0" result="hardAlpha"/>
<feOffset dy="4"/>
<feGaussianBlur stdDeviation="2"/>
<feComposite in2="hardAlpha" operator="out"/>
<feColorMatrix type="matrix" values="0 0 0 0 0 0 0 0 0 0 0 0 0 0 0 0 0 0 0.25 0"/>
<feBlend mode="normal" in2="BackgroundImageFix" result="effect1_dropShadow_1_957"/>
<feBlend mode="normal" in="SourceGraphic" in2="effect1_dropShadow_1_957" result="shape"/>
</filter>
</defs>
</svg>
